<svg xmlns="http://www.w3.org/2000/svg" viewBox="0 0 256 256">
  <rect width="256" height="256" fill="#1B6B4A"/>
  <path d="M128 20 L188.4 59.6 L208 128 L188.4 196.4 L128 236 L67.6 196.4 L48 128 L67.6 59.6 Z" fill="none" stroke="#C9A84C" stroke-width="3"/>
  <path d="M128 40 L176.8 71.2 L192 128 L176.8 184.8 L128 216 L79.2 184.8 L64 128 L79.2 71.2 Z" fill="none" stroke="#C9A84C" stroke-width="2" opacity="0.6"/>
  <g transform="translate(128, 115)">
    <path d="M -8 -15 A 18 18 0 1 1 -8 15 A 14 14 0 1 0 -8 -15 Z" fill="#C9A84C"/>
    <path d="M 8 -8 L 10 -2 L 16 -2 L 11 2 L 13 8 L 8 4 L 3 8 L 5 2 L 0 -2 L 6 -2 Z" fill="#C9A84C"/>
  </g>
  <circle cx="128" cy="128" r="55" fill="none" stroke="#C9A84C" stroke-width="1.5" opacity="0.4"/>
  <path d="M 90 90 L 166 90 M 90 166 L 166 166 M 90 90 L 90 166 M 166 90 L 166 166" stroke="#C9A84C" stroke-width="1" opacity="0.3"/>
</svg>